<svg aria-hidden="true" style="position: absolute; width: 0; height: 0; overflow: hidden;" version="1.1" xmlns="http://www.w3.org/2000/svg" xmlns:xlink="http://www.w3.org/1999/xlink">
  <defs>
    <symbol id="icon-Git" viewBox="0 0 32 32">
      <path d="M30.585 14.65l-13.235-13.234c-0.762-0.762-1.998-0.762-2.761 0l-2.748 2.749 3.486 3.486c0.81-0.274 1.739-0.090 2.385 0.556 0.65 0.65 0.832 1.587 0.551 2.4l3.36 3.36c0.813-0.28 1.751-0.099 2.4 0.551 0.907 0.907 0.907 2.377 0 3.285s-2.378 0.908-3.286 0c-0.682-0.683-0.851-1.686-0.505-2.526l-3.134-3.134v8.246c0.221 0.11 0.43 0.255 0.614 0.439 0.907 0.907 0.907 2.377 0 3.285-0.907 0.907-2.378 0.907-3.285 0-0.907-0.909-0.907-2.379 0-3.285 0.224-0.224 0.484-0.394 0.761-0.507v-8.323c-0.277-0.114-0.536-0.281-0.761-0.507-0.687-0.687-0.852-1.696-0.5-2.54l-3.437-3.437-9.075 9.074c-0.762 0.763-0.762 1.999 0 2.762l13.236 13.235c0.762 0.762 1.998 0.762 2.761 0l13.173-13.173c0.762-0.762 0.762-1.999 0-2.762z"></path>
    </symbol>
    <symbol id="icon-facebook" viewBox="0 0 32 32">
      <path stroke-linejoin="round" stroke-linecap="round" stroke-miterlimit="4" stroke-width="2.6667" d="M24 2.667h-4c-1.768 0-3.464 0.702-4.714 1.953s-1.953 2.946-1.953 4.714v4h-4v5.333h4v10.667h5.333v-10.667h4l1.333-5.333h-5.333v-4c0-0.354 0.141-0.693 0.391-0.943s0.589-0.391 0.943-0.391h4v-5.333z"></path>
    </symbol>
    <symbol id="icon-instagram" viewBox="0 0 32 32">
      <path stroke-linejoin="round" stroke-linecap="round" stroke-miterlimit="4" stroke-width="2.6667" d="M22.667 2.667h-13.333c-3.682 0-6.667 2.985-6.667 6.667v13.333c0 3.682 2.985 6.667 6.667 6.667h13.333c3.682 0 6.667-2.985 6.667-6.667v-13.333c0-3.682-2.985-6.667-6.667-6.667z"></path>
      <path stroke-linejoin="round" stroke-linecap="round" stroke-miterlimit="4" stroke-width="2.6667" d="M21.333 15.16c0.165 1.11-0.025 2.243-0.542 3.239s-1.334 1.803-2.336 2.308c-1.002 0.504-2.138 0.68-3.245 0.502s-2.131-0.701-2.924-1.494-1.316-1.816-1.494-2.924c-0.178-1.107-0.003-2.243 0.502-3.245s1.312-1.82 2.307-2.336c0.996-0.517 2.129-0.706 3.239-0.542 1.132 0.168 2.18 0.695 2.989 1.504s1.337 1.857 1.505 2.989z"></path>
      <path stroke-linejoin="round" stroke-linecap="round" stroke-miterlimit="4" stroke-width="2.6667" d="M23.333 8.667h0.013"></path>
    </symbol>
    <symbol id="icon-twitter" viewBox="0 0 32 32">
      <path stroke-linejoin="round" stroke-linecap="round" stroke-miterlimit="4" stroke-width="2.6667" d="M30.667 4.013c-1.277 0.901-2.691 1.589-4.187 2.040-0.803-0.923-1.87-1.578-3.057-1.875s-2.437-0.222-3.58 0.214c-1.143 0.436-2.125 1.213-2.812 2.226s-1.047 2.211-1.031 3.435v1.333c-2.343 0.061-4.665-0.459-6.759-1.513s-3.894-2.609-5.241-4.527c0 0-5.333 12 6.667 17.333-2.746 1.864-6.017 2.799-9.333 2.667 12 6.667 26.667 0 26.667-15.333-0.001-0.371-0.037-0.742-0.107-1.107 1.361-1.342 2.321-3.036 2.773-4.893v0z"></path>
    </symbol>
    <symbol id="icon-linkedin" viewBox="0 0 32 32">
      <path d="M31.992 32v-0.001h0.008v-11.736c0-5.741-1.236-10.164-7.948-10.164-3.227 0-5.392 1.771-6.276 3.449h-0.093v-2.913h-6.364v21.364h6.627v-10.579c0-2.785 0.528-5.479 3.977-5.479 3.399 0 3.449 3.179 3.449 5.657v10.401h6.62z"></path>
      <path d="M0.528 10.636h6.635v21.364h-6.635v-21.364z"></path>
      <path d="M3.843-0c-2.121 0-3.843 1.721-3.843 3.843s1.721 3.879 3.843 3.879c2.121 0 3.843-1.757 3.843-3.879-0.001-2.121-1.723-3.843-3.843-3.843v0z"></path>
    </symbol>
    <symbol id="icon-aid-kit" viewBox="0 0 32 32">
      <path d="M28 8h-6v-4c0-1.1-0.9-2-2-2h-8c-1.1 0-2 0.9-2 2v4h-6c-2.2 0-4 1.8-4 4v16c0 2.2 1.8 4 4 4h24c2.2 0 4-1.8 4-4v-16c0-2.2-1.8-4-4-4zM12 4h8v4h-8v-4zM24 22h-6v6h-4v-6h-6v-4h6v-6h4v6h6v4z"></path>
    </symbol>
    <symbol id="icon-airplane" viewBox="0 0 32 32">
      <path d="M24 19.999l-5.713-5.713 13.713-10.286-4-4-17.141 6.858-5.397-5.397c-1.556-1.556-3.728-1.928-4.828-0.828s-0.727 3.273 0.828 4.828l5.396 5.396-6.858 17.143 4 4 10.287-13.715 5.713 5.713v7.999h4l2-6 6-2v-4l-7.999 0z"></path>
    </symbol>
    <symbol id="icon-tree" viewBox="0 0 32 32">
      <path d="M30.5 24h-0.5v-6.5c0-1.93-1.57-3.5-3.5-3.5h-8.5v-4h0.5c0.825 0 1.5-0.675 1.5-1.5v-5c0-0.825-0.675-1.5-1.5-1.5h-5c-0.825 0-1.5 0.675-1.5 1.5v5c0 0.825 0.675 1.5 1.5 1.5h0.5v4h-8.5c-1.93 0-3.5 1.57-3.5 3.5v6.5h-0.5c-0.825 0-1.5 0.675-1.5 1.5v5c0 0.825 0.675 1.5 1.5 1.5h5c0.825 0 1.5-0.675 1.5-1.5v-5c0-0.825-0.675-1.5-1.5-1.5h-0.5v-6h8v6h-0.5c-0.825 0-1.5 0.675-1.5 1.5v5c0 0.825 0.675 1.5 1.5 1.5h5c0.825 0 1.5-0.675 1.5-1.5v-5c0-0.825-0.675-1.5-1.5-1.5h-0.5v-6h8v6h-0.5c-0.825 0-1.5 0.675-1.5 1.5v5c0 0.825 0.675 1.5 1.5 1.5h5c0.825 0 1.5-0.675 1.5-1.5v-5c0-0.825-0.675-1.5-1.5-1.5zM6 30h-4v-4h4v4zM18 30h-4v-4h4v4zM14 8v-4h4v4h-4zM30 30h-4v-4h4v4z"></path>
    </symbol>
    <symbol id="icon-whatsapp" viewBox="0 0 32 32">
      <path d="M27.281 4.65c-2.994-3-6.975-4.65-11.219-4.65-8.738 0-15.85 7.112-15.85 15.856 0 2.794 0.731 5.525 2.119 7.925l-2.25 8.219 8.406-2.206c2.319 1.262 4.925 1.931 7.575 1.931h0.006c0 0 0 0 0 0 8.738 0 15.856-7.113 15.856-15.856 0-4.238-1.65-8.219-4.644-11.219zM16.069 29.050v0c-2.369 0-4.688-0.637-6.713-1.837l-0.481-0.288-4.987 1.306 1.331-4.863-0.313-0.5c-1.325-2.094-2.019-4.519-2.019-7.012 0-7.269 5.912-13.181 13.188-13.181 3.519 0 6.831 1.375 9.319 3.862 2.488 2.494 3.856 5.8 3.856 9.325-0.006 7.275-5.919 13.188-13.181 13.188zM23.294 19.175c-0.394-0.2-2.344-1.156-2.706-1.288s-0.625-0.2-0.894 0.2c-0.262 0.394-1.025 1.288-1.256 1.556-0.231 0.262-0.462 0.3-0.856 0.1s-1.675-0.619-3.188-1.969c-1.175-1.050-1.975-2.35-2.206-2.744s-0.025-0.613 0.175-0.806c0.181-0.175 0.394-0.463 0.594-0.694s0.262-0.394 0.394-0.662c0.131-0.262 0.069-0.494-0.031-0.694s-0.894-2.15-1.219-2.944c-0.319-0.775-0.65-0.669-0.894-0.681-0.231-0.012-0.494-0.012-0.756-0.012s-0.694 0.1-1.056 0.494c-0.363 0.394-1.387 1.356-1.387 3.306s1.419 3.831 1.619 4.1c0.2 0.262 2.794 4.269 6.769 5.981 0.944 0.406 1.681 0.65 2.256 0.837 0.95 0.3 1.813 0.256 2.494 0.156 0.762-0.113 2.344-0.956 2.675-1.881s0.331-1.719 0.231-1.881c-0.094-0.175-0.356-0.275-0.756-0.475z"></path>
    </symbol>
    <symbol id="icon-youtube2" viewBox="0 0 80 32">
      <path d="M10.75 5.294c0.007-0.027 0.011-0.046 0.012-0.056l0.033-0.236-1.48-0.008c-1.337-0.008-1.746 0-1.783 0.034-0.018 0.016-0.479 1.77-1.302 4.946-0.392 1.515-0.723 2.725-0.734 2.689s-0.481-1.766-1.044-3.843c-0.563-2.078-1.034-3.789-1.048-3.803-0.019-0.019-1.812-0.028-3.263-0.016-0.21 0.002-0.327-0.41 1.876 6.598 0.305 0.97 0.762 2.344 1.015 3.052 0.292 0.817 0.5 1.448 0.642 1.974 0.251 1.002 0.26 1.63 0.205 2.363-0.063 0.847-0.073 6.826-0.011 6.926 0.047 0.077 2.851 0.112 3.116 0.040 0.042-0.012 0.071-0.053 0.090-0.279 0.066-0.194 0.071-0.968 0.071-4.18v-4.103l0.179-0.566c0.117-0.37 0.413-1.344 0.656-2.163s0.538-1.801 0.654-2.18c1.057-3.447 2.067-6.838 2.094-7.032l0.022-0.158z"></path>
      <path d="M26.441 10.27l-0.001 0.214-0.033 0-0.019 5.906-0.018 5.726-0.458 0.467c-0.513 0.522-0.925 0.722-1.297 0.629-0.405-0.102-0.395 0.056-0.429-6.712l-0.031-6.23h-2.947v0.214h-0.034v6.759c0 7.242-0 7.237 0.367 7.965 0.293 0.579 0.719 0.861 1.45 0.958h0c0.962 0.128 2-0.308 2.962-1.244l0.418-0.407v0.701c0 0.606 0.017 0.706 0.127 0.737 0.18 0.050 2.412 0.053 2.653 0.004l0.2-0.041v-0.207l0.034-0.007v-15.472l-2.944 0.039z"></path>
      <path d="M18.965 13.323c-0.279-1.198-0.802-2.004-1.664-2.561-1.353-0.875-2.897-0.967-4.331-0.259-1.045 0.516-1.717 1.372-2.065 2.628-0.041 0.15-0.072 0.275-0.095 0.463-0.088 0.443-0.099 1.105-0.122 4.186-0.035 4.748 0.019 5.313 0.614 6.391 0.583 1.058 1.794 1.833 3.112 1.993 0.397 0.048 1.201-0.027 1.663-0.155 1.051-0.291 2.058-1.122 2.504-2.065 0.192-0.407 0.309-0.691 0.379-1.208 0.13-0.707 0.14-1.849 0.14-4.762-0-3.715-0.012-4.121-0.136-4.651zM15.604 23c-0.247 0.188-0.679 0.27-1.031 0.195-0.271-0.058-0.636-0.482-0.748-0.869-0.14-0.482-0.151-7.187-0.030-8.502 0.199-0.658 0.756-1.002 1.364-0.838 0.474 0.128 0.716 0.424 0.854 1.046 0.103 0.461 0.115 1.035 0.093 4.414-0.014 2.241-0.022 3.336-0.096 3.924-0.074 0.371-0.197 0.47-0.407 0.63z"></path>
      <path d="M71.887 16.692h1.424l-0.023-1.29c-0.022-1.183-0.039-1.319-0.198-1.64-0.249-0.507-0.617-0.731-1.201-0.731-0.701 0-1.146 0.339-1.356 1.036-0.089 0.296-0.183 2.334-0.116 2.51 0.038 0.098 0.241 0.116 1.469 0.116z"></path>
      <path d="M62.369 13.757c-0.19-0.383-0.543-0.571-0.954-0.556-0.319 0.011-0.674 0.146-1.015 0.407l-0.254 0.193v9.269l0.254 0.193c0.576 0.439 1.209 0.532 1.644 0.241 0.172-0.115 0.285-0.274 0.372-0.527 0.114-0.329 0.124-0.75 0.109-4.649-0.015-4.064-0.024-4.303-0.157-4.57z"></path>
      <path d="M80.027 9.582c-0.284-3.401-0.509-4.505-1.211-5.923-0.929-1.878-2.272-2.868-4.184-3.086-1.478-0.168-7.041-0.405-12.189-0.52-8.912-0.198-23.564 0.183-25.436 0.662-0.865 0.221-1.513 0.597-2.188 1.269-1.183 1.177-1.887 2.865-2.17 5.2-0.647 5.331-0.66 11.773-0.037 17.297 0.268 2.376 0.82 3.92 1.857 5.192 0.647 0.794 1.761 1.469 2.758 1.67 0.7 0.141 4.201 0.337 9.3 0.521 0.76 0.027 2.771 0.074 4.47 0.105 3.541 0.063 10.051 0.026 13.772-0.079 2.504-0.070 7.069-0.255 7.922-0.321 0.24-0.019 0.796-0.054 1.236-0.079 1.477-0.083 2.417-0.393 3.3-1.086 1.142-0.897 2.027-2.556 2.4-4.501 0.354-1.84 0.59-5.118 0.638-8.839 0.040-3.109-0.013-4.787-0.238-7.482zM44.54 8.35l-1.656 0.020-0.073 17.661-1.435 0.018c-1.11 0.015-1.447-0.001-1.474-0.073-0.019-0.051-0.042-4.032-0.052-8.849l-0.018-8.758-3.234-0.041v-2.76l9.557 0.039 0.041 2.721-1.656 0.020zM54.694 18.472v7.595h-2.616v-0.799c0-0.601-0.023-0.799-0.093-0.799-0.051 0-0.288 0.198-0.527 0.441-0.517 0.526-1.13 0.949-1.653 1.145-1.083 0.405-2.112 0.169-2.551-0.586-0.401-0.691-0.409-0.845-0.409-8.010v-6.58h2.614l0.020 6.196c0.019 6.088 0.022 6.2 0.168 6.448 0.193 0.329 0.488 0.417 0.956 0.288 0.276-0.076 0.464-0.21 0.911-0.654l0.563-0.561v-11.717h2.616v7.595zM64.899 24.982c-0.23 0.513-0.744 1.016-1.165 1.14-1.099 0.324-1.98 0.060-2.998-0.897-0.316-0.297-0.61-0.538-0.654-0.538-0.053 0-0.082 0.233-0.082 0.69v0.69h-2.616v-20.495h2.616v3.343c0 1.839 0.025 3.343 0.054 3.343s0.306-0.244 0.613-0.541c0.707-0.683 1.298-0.981 2.049-1.038 1.338-0.101 2.135 0.587 2.501 2.16 0.114 0.491 0.125 1.051 0.125 5.596-0 5.537-0.001 5.56-0.443 6.546zM75.968 21.943c-0.023 0.57-0.092 1.223-0.154 1.454-0.364 1.349-1.332 2.304-2.732 2.696-1.885 0.527-3.96-0.337-4.788-1.994-0.465-0.93-0.481-1.116-0.481-5.662 0-3.707 0.013-4.162 0.132-4.667 0.336-1.431 1.168-2.357 2.578-2.871 0.408-0.149 0.835-0.225 1.261-0.234 1.521-0.031 3.031 0.787 3.663 2.119 0.427 0.899 0.48 1.283 0.522 3.816l0.039 2.271-5.578 0.039-0.020 1.526c-0.029 2.153 0.116 2.815 0.697 3.207 0.489 0.329 1.24 0.305 1.649-0.055 0.383-0.337 0.491-0.698 0.529-1.753l0.034-0.927h2.694l-0.043 1.036z"></path>
    </symbol>
    <symbol id="icon-tux" viewBox="0 0 32 32">
      <path d="M17.739 23.029c-2.561 1.191-4.942 1.179-6.542 1.063-1.908-0.138-3.442-0.66-4.117-1.117-0.416-0.281-0.981-0.173-1.262 0.243s-0.173 0.981 0.243 1.262c1.084 0.734 3.002 1.28 5.005 1.424 0.34 0.024 0.712 0.040 1.114 0.040 1.743 0 3.957-0.166 6.326-1.268 0.455-0.212 0.652-0.752 0.441-1.207s-0.752-0.652-1.208-0.441zM27.842 21.682c0.087-7.896 0.899-22.819-14.218-21.613-14.925 1.201-10.968 16.968-11.19 22.248-0.197 2.793-1.124 6.208-2.434 9.683h4.034c0.415-1.473 0.72-2.929 0.851-4.317 0.243 0.17 0.503 0.334 0.781 0.491 0.452 0.266 0.84 0.62 1.251 0.995 0.961 0.876 2.050 1.868 4.179 1.992 0.143 0.008 0.287 0.012 0.427 0.012 2.153 0 3.625-0.942 4.809-1.699 0.567-0.363 1.057-0.676 1.518-0.827 1.31-0.41 2.454-1.072 3.309-1.914 0.134-0.131 0.258-0.267 0.374-0.405 0.476 1.746 1.129 3.711 1.853 5.672h8.614c-2.068-3.195-4.201-6.324-4.158-10.318zM3.878 17.386c0-0 0-0.001-0-0.001-0.148-2.577 1.085-4.745 2.754-4.842s3.142 1.913 3.291 4.49c0 0 0 0.001 0 0.001 0.008 0.139 0.011 0.276 0.012 0.413-0.529 0.133-1.006 0.326-1.434 0.551-0.002-0.019-0.003-0.038-0.005-0.057 0-0 0-0.001 0-0.001-0.143-1.463-0.924-2.567-1.745-2.467s-1.371 1.367-1.228 2.83c0 0 0 0.001 0 0.001 0.062 0.638 0.246 1.207 0.501 1.639-0.064 0.050-0.243 0.182-0.45 0.333-0.155 0.114-0.344 0.252-0.572 0.42-0.621-0.815-1.047-1.987-1.123-3.309zM20.789 23.756c-0.059 1.362-1.841 2.643-3.487 3.158l-0.009 0.003c-0.684 0.222-1.295 0.613-1.941 1.026-1.085 0.695-2.208 1.413-3.829 1.413-0.106 0-0.215-0.003-0.323-0.009-1.485-0.087-2.179-0.72-3.059-1.521-0.464-0.423-0.943-0.86-1.562-1.223l-0.013-0.008c-1.335-0.753-2.163-1.69-2.216-2.506-0.026-0.406 0.154-0.757 0.537-1.044 0.832-0.624 1.39-1.032 1.759-1.302 0.41-0.3 0.533-0.39 0.625-0.477 0.066-0.062 0.136-0.131 0.213-0.205 0.764-0.743 2.043-1.986 4.005-1.986 1.2 0 2.528 0.462 3.943 1.372 0.666 0.434 1.246 0.634 1.981 0.887 0.505 0.174 1.077 0.372 1.843 0.7l0.012 0.005c0.715 0.294 1.559 0.83 1.521 1.717zM20.395 20.556c-0.137-0.069-0.28-0.135-0.43-0.196-0.691-0.296-1.245-0.496-1.704-0.656 0.254-0.497 0.411-1.116 0.426-1.789 0-0 0-0.001 0-0.001 0.035-1.637-0.79-2.966-1.844-2.968s-1.936 1.322-1.971 2.959c0 0 0 0.001 0 0.001-0.001 0.054-0.001 0.107-0.001 0.16-0.649-0.299-1.287-0.515-1.911-0.649-0.003-0.061-0.006-0.123-0.008-0.185 0-0 0-0.001 0-0.002-0.061-2.982 1.769-5.45 4.086-5.513s4.245 2.303 4.305 5.285c0 0.001 0 0.001 0 0.002 0.027 1.348-0.333 2.59-0.949 3.552z"></path>
    </symbol>
  </defs>
</svg>